# xmcd
#
# Track frame offsets:
#	150
#	17523
#	32961
#	63699
#	76778
#	88345
#	102482
#	124157
#
# Disc length: 2861 seconds
#
# Revision: 0
# Processed by: cddbd v1.5.2PL0 Copyright (c) Steve Scherf et al.
# Submitted via: audiograbber 1.83.01
#
DISCID=660b2b08
DTITLE=Canned Heat - Living The Blues [CD 1)
DYEAR=1968
DGENRE=Bues
TTITLE0=Pony Blues
TTITLE1=My Mistake
TTITLE2=Sandy's Blues
TTITLE3=Going Up The Country
TTITLE4=Walking By Myself
TTITLE5=Boogie Music
TTITLE6=One Kind Favor
TTITLE7=Parthenogenesis: a) Nebulosity b) Rollin' And Tumblin' c) Five Owls d) 
TTITLE7=Bear Wires e) Snooky Flowers f) Sunflower Power g) Raga Kafi h) Icebag 
TTITLE7=i) Childhood's
EXTD=
EXTT0=
EXTT1=
EXTT2=
EXTT3=
EXTT4=
EXTT5=
EXTT6=
EXTT7=
PLAYORDER=
